<svg width="20" height="21" viewBox="0 0 20 21" fill="none" xmlns="http://www.w3.org/2000/svg">
<path d="M7.50006 13.8814C6.96481 13.8814 6.51048 13.6947 6.13708 13.3213C5.76369 12.9479 5.577 12.4935 5.577 11.9583C5.577 11.423 5.76369 10.9687 6.13708 10.5953C6.51048 10.2219 6.96481 10.0352 7.50006 10.0352C8.03531 10.0352 8.48964 10.2219 8.86304 10.5953C9.23643 10.9687 9.42312 11.423 9.42312 11.9583C9.42312 12.4935 9.23643 12.9479 8.86304 13.3213C8.48964 13.6947 8.03531 13.8814 7.50006 13.8814ZM4.42316 18.4166C4.00222 18.4166 3.64591 18.2708 3.35425 17.9791C3.06258 17.6875 2.91675 17.3311 2.91675 16.9102V5.75641C2.91675 5.33547 3.06258 4.97916 3.35425 4.68749C3.64591 4.39583 4.00222 4.24999 4.42316 4.24999H5.57702V2.48718H6.85904V4.24999H13.1731V2.48718H14.4231V4.24999H15.577C15.9979 4.24999 16.3542 4.39583 16.6459 4.68749C16.9375 4.97916 17.0834 5.33547 17.0834 5.75641V16.9102C17.0834 17.3311 16.9375 17.6875 16.6459 17.9791C16.3542 18.2708 15.9979 18.4166 15.577 18.4166H4.42316ZM4.42316 17.1666H15.577C15.6411 17.1666 15.6998 17.1399 15.7533 17.0865C15.8067 17.0331 15.8334 16.9743 15.8334 16.9102V9.08975H4.16673V16.9102C4.16673 16.9743 4.19344 17.0331 4.24685 17.0865C4.30028 17.1399 4.35905 17.1666 4.42316 17.1666ZM4.16673 7.83977H15.8334V5.75641C15.8334 5.6923 15.8067 5.63353 15.7533 5.5801C15.6998 5.52668 15.6411 5.49997 15.577 5.49997H4.42316C4.35905 5.49997 4.30028 5.52668 4.24685 5.5801C4.19344 5.63353 4.16673 5.6923 4.16673 5.75641V7.83977Z" fill="white" fill-opacity="0.6"/>
</svg>
