<svg width="24" height="24" viewBox="0 0 24 24" fill="none" xmlns="http://www.w3.org/2000/svg">
<path d="M5.99997 14.0002C5.99997 15.0079 6.24068 15.9458 6.7221 16.8137C7.20352 17.6817 7.86539 18.3817 8.70773 18.9137C8.63336 18.7727 8.58015 18.632 8.5481 18.4916C8.51603 18.3512 8.5 18.2041 8.5 18.0502C8.5 17.5874 8.58878 17.1515 8.76635 16.7426C8.94392 16.3336 9.19872 15.9631 9.53077 15.631L12 13.2022L14.4788 15.631C14.8109 15.9631 15.064 16.3336 15.2384 16.7426C15.4128 17.1515 15.5 17.5874 15.5 18.0502C15.5 18.2041 15.4839 18.3512 15.4518 18.4916C15.4198 18.632 15.3666 18.7727 15.2922 18.9137C16.1346 18.3817 16.7964 17.6817 17.2779 16.8137C17.7593 15.9458 18 15.0079 18 14.0002C18 13.1669 17.8458 12.3794 17.5375 11.6377C17.2291 10.8961 16.7833 10.2336 16.2 9.65023C15.8666 9.8669 15.5166 10.0294 15.15 10.1377C14.7833 10.2461 14.4083 10.3002 14.025 10.3002C12.9852 10.3002 12.0862 9.95857 11.3278 9.27523C10.5695 8.5919 10.1352 7.74382 10.025 6.73101C9.37497 7.27459 8.79997 7.84222 8.29997 8.43388C7.79997 9.02555 7.37914 9.62876 7.03747 10.2435C6.69581 10.8582 6.43747 11.4823 6.26247 12.1156C6.08747 12.7489 5.99997 13.3771 5.99997 14.0002ZM12 15.3002L10.575 16.7002C10.3916 16.8836 10.25 17.0919 10.15 17.3252C10.05 17.5586 9.99997 17.8002 9.99997 18.0502C9.99997 18.5836 10.1958 19.0419 10.5875 19.4252C10.9791 19.8086 11.45 20.0002 12 20.0002C12.55 20.0002 13.0208 19.8086 13.4125 19.4252C13.8041 19.0419 14 18.5836 14 18.0502C14 17.7836 13.95 17.5377 13.85 17.3127C13.75 17.0877 13.6083 16.8836 13.425 16.7002L12 15.3002ZM11.4999 3.89453V6.30023C11.4999 7.00793 11.7439 7.60153 12.2317 8.08103C12.7195 8.56052 13.3173 8.80026 14.025 8.80026C14.3314 8.80026 14.6234 8.74257 14.901 8.62718C15.1785 8.5118 15.4333 8.34193 15.6654 8.11758L16.1058 7.67336C17.1596 8.34771 17.9887 9.24738 18.5932 10.3724C19.1977 11.4974 19.5 12.7066 19.5 14.0002C19.5 16.0925 18.773 17.8656 17.3192 19.3194C15.8653 20.7733 14.0923 21.5002 12 21.5002C9.90767 21.5002 8.13461 20.7733 6.68077 19.3194C5.22692 17.8656 4.5 16.0925 4.5 14.0002C4.5 12.0682 5.12948 10.2092 6.38845 8.42336C7.64742 6.63746 9.35125 5.12785 11.4999 3.89453Z" fill="white" fill-opacity="0.6"/>
</svg>
