<svg width="24" height="24" viewBox="0 0 24 24" fill="none" xmlns="http://www.w3.org/2000/svg">
<path d="M4.5 14.0002C4.5 12.5259 4.82532 11.1983 5.47595 10.0176C6.12658 8.83683 6.86375 7.81826 7.68745 6.96186C8.51115 6.10544 9.30121 5.41698 10.0576 4.89648C10.814 4.37596 11.2948 4.04198 11.4999 3.89453V6.30023C11.4999 7.07075 11.7596 7.68005 12.2788 8.12813C12.798 8.57622 13.3801 8.80026 14.025 8.80026C14.3275 8.80026 14.616 8.74513 14.8904 8.63488C15.1647 8.52463 15.4231 8.3522 15.6654 8.11758L16.1058 7.67336C17.1327 8.34771 17.9551 9.24161 18.573 10.3551C19.191 11.4685 19.5 12.6836 19.5 14.0002C19.5 15.4989 19.1031 16.8461 18.3095 18.0416C17.5159 19.2371 16.4877 20.1272 15.2249 20.7118C15.5467 20.3566 15.798 19.9528 15.9788 19.5002C16.1595 19.0477 16.2499 18.5643 16.2499 18.0502C16.2499 17.4925 16.1442 16.9611 15.9326 16.456C15.7211 15.9509 15.4172 15.5003 15.0211 15.1041L12 12.1484L9.00385 15.1041C8.59745 15.5105 8.28688 15.9621 8.07215 16.4589C7.8574 16.9557 7.75003 17.4861 7.75003 18.0502C7.75003 18.5643 7.84041 19.0477 8.02117 19.5002C8.20196 19.9528 8.45325 20.3566 8.77505 20.7118C7.51222 20.1272 6.484 19.2371 5.6904 18.0416C4.8968 16.8461 4.5 15.4989 4.5 14.0002ZM12 14.2464L13.9519 16.1579C14.2096 16.4156 14.407 16.7034 14.5442 17.0214C14.6814 17.3393 14.75 17.6823 14.75 18.0502C14.75 18.7964 14.4823 19.4329 13.9471 19.9598C13.4118 20.4867 12.7628 20.7502 12 20.7502C11.2372 20.7502 10.5881 20.4867 10.0529 19.9598C9.51762 19.4329 9.25 18.7964 9.25 18.0502C9.25 17.6989 9.31698 17.3618 9.45095 17.0387C9.58493 16.7156 9.78398 16.422 10.0481 16.1579L12 14.2464Z" fill="#F2DEA1"/>
</svg>
