<svg width="20" height="21" viewBox="0 0 20 21" fill="none" xmlns="http://www.w3.org/2000/svg">
<path d="M10.0014 10.3878C10.4161 10.3878 10.7706 10.2402 11.0649 9.94492C11.3592 9.64964 11.5064 9.29467 11.5064 8.88002C11.5064 8.46537 11.3588 8.11087 11.0635 7.81654C10.7682 7.52221 10.4132 7.37504 9.99859 7.37504C9.58393 7.37504 9.22944 7.52268 8.93511 7.81796C8.64077 8.11323 8.49361 8.4682 8.49361 8.88285C8.49361 9.29751 8.64125 9.652 8.93652 9.94633C9.2318 10.2407 9.58677 10.3878 10.0014 10.3878ZM10 16.7612C11.6303 15.3019 12.8779 13.902 13.7428 12.5617C14.6076 11.2215 15.0401 10.0476 15.0401 9.04008C15.0401 7.52086 14.5574 6.27193 13.5921 5.29329C12.6269 4.31465 11.4295 3.82533 10 3.82533C8.57052 3.82533 7.37313 4.31465 6.40786 5.29329C5.44258 6.27193 4.95994 7.52086 4.95994 9.04008C4.95994 10.0476 5.39236 11.2215 6.25721 12.5617C7.12207 13.902 8.36967 15.3019 10 16.7612ZM10 18.4247C7.90279 16.6074 6.33015 14.9161 5.28207 13.351C4.234 11.7858 3.70996 10.3488 3.70996 9.04008C3.70996 7.11703 4.33202 5.56015 5.57615 4.36944C6.82026 3.17873 8.29488 2.58337 10 2.58337C11.7051 2.58337 13.1797 3.17873 14.4239 4.36944C15.668 5.56015 16.29 7.11703 16.29 9.04008C16.29 10.3488 15.766 11.7858 14.7179 13.351C13.6699 14.9161 12.0972 16.6074 10 18.4247Z" fill="white" fill-opacity="0.6"/>
</svg>
