<svg width="24" height="24" viewBox="0 0 24 24" fill="none" xmlns="http://www.w3.org/2000/svg">
<rect width="24" height="24" rx="4" fill="#121316" fill-opacity="0.38"/>
<path d="M7.25642 19.9167C6.84082 19.9167 6.48585 19.7695 6.19152 19.4751C5.89717 19.1808 5.75 18.8258 5.75 18.4102V10.5898C5.75 10.1742 5.89717 9.81923 6.19152 9.52489C6.48585 9.23055 6.84082 9.08337 7.25642 9.08337H8.25V7.41671C8.25 6.37612 8.61485 5.49098 9.34454 4.76129C10.0743 4.0316 10.9594 3.66675 12 3.66675C13.0406 3.66675 13.9257 4.0316 14.6554 4.76129C15.3851 5.49098 15.75 6.37612 15.75 7.41671V9.08337H16.7435C17.1591 9.08337 17.5141 9.23055 17.8084 9.52489C18.1028 9.81923 18.25 10.1742 18.25 10.5898V18.4102C18.25 18.8258 18.1028 19.1808 17.8084 19.4751C17.5141 19.7695 17.1591 19.9167 16.7435 19.9167H7.25642ZM7.25642 18.6667H16.7435C16.8183 18.6667 16.8798 18.6426 16.9279 18.5946C16.9759 18.5465 17 18.485 17 18.4102V10.5898C17 10.515 16.9759 10.4536 16.9279 10.4055C16.8798 10.3574 16.8183 10.3334 16.7435 10.3334H7.25642C7.18163 10.3334 7.12019 10.3574 7.0721 10.4055C7.02402 10.4536 6.99998 10.515 6.99998 10.5898V18.4102C6.99998 18.485 7.02402 18.5465 7.0721 18.5946C7.12019 18.6426 7.18163 18.6667 7.25642 18.6667ZM12 15.9583C12.4049 15.9583 12.7492 15.8165 13.0328 15.5329C13.3165 15.2492 13.4583 14.9049 13.4583 14.5C13.4583 14.0951 13.3165 13.7508 13.0328 13.4672C12.7492 13.1835 12.4049 13.0417 12 13.0417C11.5951 13.0417 11.2508 13.1835 10.9671 13.4672C10.6835 13.7508 10.5417 14.0951 10.5417 14.5C10.5417 14.9049 10.6835 15.2492 10.9671 15.5329C11.2508 15.8165 11.5951 15.9583 12 15.9583ZM9.49998 9.08337H14.5V7.41671C14.5 6.72226 14.2569 6.13198 13.7708 5.64587C13.2847 5.15976 12.6944 4.91671 12 4.91671C11.3055 4.91671 10.7153 5.15976 10.2291 5.64587C9.74303 6.13198 9.49998 6.72226 9.49998 7.41671V9.08337Z" fill="white" fill-opacity="0.87"/>
</svg>
