<svg width="20" height="21" viewBox="0 0 20 21" fill="none" xmlns="http://www.w3.org/2000/svg">
<path d="M5.01927 14.9103C5.7276 14.3847 6.49924 13.9696 7.33417 13.6651C8.1691 13.3606 9.05771 13.2084 10 13.2084C10.9423 13.2084 11.8309 13.3606 12.6659 13.6651C13.5008 13.9696 14.2724 14.3847 14.9808 14.9103C15.4989 14.3408 15.9095 13.6817 16.2124 12.9327C16.5152 12.1838 16.6667 11.3729 16.6667 10.5C16.6667 8.6528 16.0174 7.07988 14.7188 5.78127C13.4202 4.48266 11.8472 3.83335 10 3.83335C8.1528 3.83335 6.57988 4.48266 5.28127 5.78127C3.98266 7.07988 3.33335 8.6528 3.33335 10.5C3.33335 11.3729 3.4848 12.1838 3.78769 12.9327C4.09058 13.6817 4.5011 14.3408 5.01927 14.9103ZM10.0003 11.125C9.23942 11.125 8.59778 10.8639 8.07535 10.3416C7.55292 9.81933 7.29171 9.17777 7.29171 8.41694C7.29171 7.65609 7.55284 7.01445 8.0751 6.49202C8.59738 5.96959 9.23894 5.70837 9.99977 5.70837C10.7606 5.70837 11.4023 5.96951 11.9247 6.49177C12.4471 7.01405 12.7083 7.6556 12.7083 8.41644C12.7083 9.17728 12.4472 9.81892 11.9249 10.3414C11.4027 10.8638 10.7611 11.125 10.0003 11.125ZM10 18.4167C8.90066 18.4167 7.86942 18.2099 6.90629 17.7965C5.94315 17.383 5.10528 16.82 4.39267 16.1074C3.68007 15.3948 3.11704 14.5569 2.70358 13.5938C2.29011 12.6306 2.08337 11.5994 2.08337 10.5C2.08337 9.40066 2.29011 8.36942 2.70358 7.40629C3.11704 6.44315 3.68007 5.60528 4.39267 4.89267C5.10528 4.18007 5.94315 3.61704 6.90629 3.20358C7.86942 2.79011 8.90066 2.58337 10 2.58337C11.0994 2.58337 12.1306 2.79011 13.0938 3.20358C14.0569 3.61704 14.8948 4.18007 15.6074 4.89267C16.32 5.60528 16.883 6.44315 17.2965 7.40629C17.7099 8.36942 17.9167 9.40066 17.9167 10.5C17.9167 11.5994 17.7099 12.6306 17.2965 13.5938C16.883 14.5569 16.32 15.3948 15.6074 16.1074C14.8948 16.82 14.0569 17.383 13.0938 17.7965C12.1306 18.2099 11.0994 18.4167 10 18.4167ZM10 17.1667C10.7522 17.1667 11.4773 17.0457 12.1755 16.8037C12.8737 16.5617 13.4936 16.2233 14.0353 15.7885C13.4936 15.3697 12.8817 15.0433 12.1995 14.8093C11.5174 14.5753 10.7842 14.4583 10 14.4583C9.21583 14.4583 8.48131 14.574 7.79648 14.8053C7.11165 15.0366 6.50107 15.3643 5.96475 15.7885C6.50642 16.2233 7.12635 16.5617 7.82454 16.8037C8.52272 17.0457 9.24788 17.1667 10 17.1667ZM10 9.87504C10.4145 9.87504 10.7612 9.73562 11.0401 9.45677C11.319 9.17791 11.4584 8.83122 11.4584 8.41669C11.4584 8.00216 11.319 7.65547 11.0401 7.3766C10.7612 7.09776 10.4145 6.95833 10 6.95833C9.58549 6.95833 9.2388 7.09776 8.95994 7.3766C8.68109 7.65547 8.54167 8.00216 8.54167 8.41669C8.54167 8.83122 8.68109 9.17791 8.95994 9.45677C9.2388 9.73562 9.58549 9.87504 10 9.87504Z" fill="white" fill-opacity="0.6"/>
</svg>
