<svg width="21" height="18" viewBox="0 0 21 18" fill="none" xmlns="http://www.w3.org/2000/svg">
<path d="M0.317173 8.37276C2.46554 7.14806 4.86369 6.12586 7.1044 5.09845C10.9593 3.41565 14.8295 1.76201 18.7388 0.222495C19.4994 -0.0398077 20.866 -0.296294 21 0.870224C20.9266 2.52149 20.6247 4.16308 20.4177 5.80467C19.8922 9.41468 19.2848 13.0123 18.6925 16.6105C18.4884 17.809 17.0377 18.4294 16.1095 17.6624C13.8787 16.103 11.6308 14.5587 9.42856 12.963C8.70716 12.2044 9.37612 11.1149 10.0204 10.5731C11.8577 8.69919 13.8062 7.10705 15.5475 5.13626C16.0172 3.96238 14.6294 4.95168 14.1716 5.25484C11.6563 7.04875 9.20256 8.95219 6.55064 10.5288C5.19605 11.3005 3.61724 10.641 2.26326 10.2104C1.04927 9.6902 -0.729718 9.16608 0.317051 8.37291L0.317173 8.37276Z" fill="white"/>
</svg>
